<?xml version="1.0" encoding="UTF-8"?>
<svg xmlns="http://www.w3.org/2000/svg" xmlns:xlink="http://www.w3.org/1999/xlink" width="75pt" height="59pt" viewBox="0 0 75 59" version="1.1">
<g id="surface1">
<path style=" stroke:none;fill-rule:evenodd;fill:rgb(0%,50.19989%,77.598572%);fill-opacity:1;" d="M 41.449219 32.34375 C 41.949219 32.34375 42.355469 32.75 42.355469 33.25 C 42.355469 33.753906 41.949219 34.160156 41.449219 34.160156 C 40.945313 34.160156 40.539063 33.753906 40.539063 33.25 C 40.539063 32.75 40.945313 32.34375 41.449219 32.34375 "/>
<path style=" stroke:none;fill-rule:evenodd;fill:rgb(95.698547%,46.699524%,12.5%);fill-opacity:1;" d="M 24.632813 33.546875 C 24.820313 33.40625 26.769531 30.96875 27.144531 30.546875 L 34.710938 21.480469 L 37.359375 43.792969 C 37.554688 45.128906 37.652344 46.496094 37.84375 47.84375 C 37.894531 48.175781 37.921875 48.496094 37.957031 48.847656 C 37.972656 48.996094 38.003906 49.195313 38.027344 49.359375 C 38.195313 50.535156 38.285156 51.730469 38.445313 52.902344 C 38.46875 53.09375 38.488281 53.222656 38.511719 53.410156 C 38.535156 53.558594 38.523438 53.726563 38.574219 53.851563 L 38.597656 53.898438 L 38.636719 5.089844 C 38.605469 5.222656 38.582031 5.21875 38.535156 5.3125 C 38.492188 5.402344 38.476563 5.449219 38.429688 5.535156 L 24.632813 33.546875 "/>
<path style=" stroke:none;fill-rule:evenodd;fill:rgb(95.698547%,46.699524%,12.5%);fill-opacity:1;" d="M 22.148438 35.671875 L 24.917969 35.671875 L 24.917969 37.472656 C 24.917969 38.074219 23.578125 38.703125 22.796875 38.769531 C 22.796875 38.53125 22.867188 38.394531 22.867188 38.121094 C 22.867188 37.320313 22.84375 36.789063 22.40625 36.0625 C 22.316406 35.910156 22.238281 35.808594 22.148438 35.671875 Z M 29.960938 32.933594 C 30.488281 32.890625 30.976563 32.773438 31.484375 33.03125 C 32.015625 33.296875 32.410156 33.953125 32.550781 34.554688 L 12.03125 34.554688 L 12.03125 35.5625 C 12.03125 35.648438 12.054688 35.671875 12.140625 35.671875 L 17 35.671875 L 17 36.210938 C 16.6875 36.207031 16.304688 36.03125 15.777344 36.03125 C 14.769531 36.03125 13.710938 36.457031 13.179688 37.179688 C 13.128906 37.246094 13.085938 37.328125 13.039063 37.402344 C 12.527344 38.167969 12.664063 39.273438 13.148438 39.992188 C 15.054688 38.984375 18.660156 40.085938 17.035156 41.257813 C 16.296875 41.789063 14.769531 41.425781 14.769531 39.957031 C 14.53125 40.117188 14.304688 40.273438 14.0625 40.441406 C 13.90625 40.550781 13.445313 40.820313 13.363281 40.929688 C 13.519531 41.222656 13.769531 41.433594 14.023438 41.640625 C 14.503906 42.035156 15.027344 42.039063 15.160156 42.230469 C 15.210938 42.304688 15.25 42.371094 15.300781 42.453125 C 15.460938 42.6875 16.082031 43.535156 16.136719 43.742188 L 17.757813 43.742188 C 17.703125 43.539063 16.703125 42.359375 16.566406 42.15625 C 17.417969 42.085938 18.90625 41.417969 18.90625 40.390625 C 18.90625 39.84375 18.574219 39.382813 18.207031 39.074219 C 17.957031 38.859375 17.707031 38.6875 17.402344 38.546875 C 16.191406 37.980469 14.890625 38.109375 13.664063 38.53125 C 13.550781 38.570313 13.5 38.601563 13.398438 38.625 C 13.410156 38.152344 13.757813 37.769531 14.097656 37.523438 C 15.199219 36.722656 17.300781 37.179688 18.324219 37.875 C 18.433594 37.949219 18.484375 38.050781 18.621094 38.085938 L 18.621094 35.671875 L 21.609375 35.710938 L 21.390625 35.816406 C 21.15625 35.933594 20.695313 36.191406 20.457031 36.25 C 20.496094 36.398438 20.6875 36.585938 20.78125 36.714844 C 21.121094 37.199219 21.726563 38.417969 21.289063 39.03125 C 21.199219 39.15625 21.097656 39.238281 20.886719 39.238281 C 20.785156 39.238281 20.777344 39.175781 20.726563 39.109375 L 20.074219 38.25 C 20.011719 38.160156 19.871094 37.953125 19.808594 37.90625 C 19.652344 38.011719 19.296875 38.296875 19.195313 38.445313 L 19.734375 39.308594 C 19.921875 39.589844 20.097656 39.875 20.28125 40.167969 L 20.96875 41.25 C 21.019531 41.328125 21.058594 41.382813 21.109375 41.464844 C 21.210938 41.625 21.292969 41.753906 21.390625 41.902344 L 22.941406 41.902344 C 22.890625 41.714844 22.675781 41.539063 22.550781 41.390625 C 22.144531 40.890625 21.714844 40.421875 21.355469 39.886719 C 21.597656 39.832031 21.824219 39.808594 22.039063 39.707031 C 22.214844 39.625 22.40625 39.460938 22.507813 39.308594 C 23.148438 39.648438 23.988281 39.613281 24.652344 39.332031 C 24.773438 39.28125 24.8125 39.230469 24.917969 39.203125 L 24.917969 41.902344 L 26.574219 41.902344 L 26.574219 35.671875 L 29.921875 35.671875 L 28.699219 36.25 C 28.722656 36.339844 29.320313 37.097656 29.515625 37.703125 C 29.777344 38.511719 29.824219 38.925781 29.09375 39.273438 C 28.898438 38.976563 28.160156 38.175781 28.085938 37.90625 C 27.945313 37.917969 27.523438 38.324219 27.441406 38.445313 C 27.476563 38.582031 27.621094 38.765625 27.691406 38.878906 L 29.597656 41.902344 L 31.183594 41.902344 C 31.113281 41.773438 31.089844 41.757813 31.003906 41.652344 L 30.410156 40.910156 C 30.289063 40.757813 29.683594 40.0625 29.636719 39.886719 C 29.914063 39.820313 30.039063 39.828125 30.277344 39.699219 C 30.480469 39.589844 30.59375 39.511719 30.730469 39.328125 C 31.253906 38.632813 31.183594 37.339844 30.878906 36.550781 C 30.730469 36.160156 30.597656 35.980469 30.390625 35.671875 L 32.226563 35.671875 L 32.226563 41.902344 L 33.882813 41.902344 L 33.882813 35.671875 L 34.710938 35.671875 L 34.710938 34.554688 L 33.632813 34.554688 C 33.515625 34.554688 33.519531 34.472656 33.488281 34.371094 C 33.078125 33.089844 32.582031 31.636719 30.894531 31.636719 C 30.683594 31.636719 30.476563 31.617188 30.394531 31.820313 C 30.285156 32.089844 29.980469 32.675781 29.960938 32.933594 "/>
<path style=" stroke:none;fill-rule:evenodd;fill:rgb(0%,50.19989%,77.598572%);fill-opacity:1;" d="M 39.824219 35.671875 L 45.78125 35.722656 L 45.320313 35.878906 C 44.679688 36.128906 44.308594 36.421875 43.847656 36.886719 C 43.539063 37.199219 43.402344 37.484375 43.195313 37.894531 C 43.011719 38.261719 42.972656 38.40625 42.832031 38.753906 C 42.777344 38.890625 42.695313 38.976563 42.816406 39.015625 L 44 39.023438 C 44.535156 39.050781 45.453125 39.105469 45.90625 39.203125 C 46.359375 39.304688 46.6875 39.519531 47.023438 39.742188 C 47.339844 39.953125 47.6875 40.253906 47.78125 40.644531 L 44.355469 40.640625 C 44.015625 40.636719 44.105469 40.664063 43.648438 41.121094 C 43.457031 41.3125 43.011719 41.714844 42.882813 41.902344 L 47.164063 41.902344 C 47.445313 41.847656 48.378906 40.882813 48.578125 40.652344 C 49.632813 39.453125 48.832031 38.46875 47.40625 37.988281 C 46.582031 37.714844 45.550781 37.6875 44.46875 37.6875 C 44.871094 37.082031 45.011719 36.609375 45.621094 36.609375 C 46.398438 36.609375 47.746094 37.386719 48.320313 37.6875 C 48.609375 37.496094 49.003906 36.988281 49.28125 36.707031 C 49.390625 36.601563 49.539063 36.511719 49.578125 36.355469 C 49.421875 36.320313 49.09375 36.09375 48.917969 36.007813 C 48.792969 35.945313 48.710938 35.902344 48.585938 35.839844 C 48.503906 35.800781 48.488281 35.800781 48.40625 35.765625 C 48.402344 35.765625 48.335938 35.734375 48.332031 35.730469 C 48.257813 35.691406 48.285156 35.707031 48.246094 35.671875 L 62.863281 35.671875 L 62.863281 34.589844 L 39.824219 34.589844 L 39.824219 35.671875 "/>
<path style=" stroke:none;fill-rule:evenodd;fill:rgb(0%,50.19989%,77.598572%);fill-opacity:1;" d="M 58.039063 40.246094 L 58.039063 38.050781 C 58.039063 37.964844 58.066406 37.941406 58.148438 37.941406 L 60.453125 37.941406 C 60.582031 37.941406 60.652344 37.972656 60.738281 38.015625 C 60.824219 38.371094 60.777344 39.945313 60.777344 40.425781 L 58.433594 40.425781 C 58.300781 40.425781 58.375 40.445313 58.265625 40.441406 C 58.226563 40.441406 58.144531 40.425781 58.074219 40.425781 C 58.054688 40.34375 58.039063 40.34375 58.039063 40.246094 Z M 56.597656 40.355469 C 56.597656 41.1875 56.988281 41.902344 57.894531 41.902344 L 62.25 41.902344 L 62.25 37.941406 C 62.25 37.328125 61.824219 36.5 61.027344 36.5 L 56.597656 36.5 L 56.597656 40.355469 "/>
<path style=" stroke:none;fill-rule:evenodd;fill:rgb(0%,50.19989%,77.598572%);fill-opacity:1;" d="M 50.300781 41.902344 L 51.882813 41.902344 L 51.882813 38.230469 C 52.476563 38.089844 52.390625 37.976563 53.179688 37.976563 C 54.335938 37.976563 54.511719 38.855469 54.511719 39.851563 C 54.71875 39.710938 54.976563 39.382813 55.191406 39.199219 C 55.199219 39.195313 55.207031 39.1875 55.210938 39.183594 L 55.269531 39.132813 C 55.394531 39.03125 55.84375 38.617188 55.84375 38.519531 L 55.84375 38.265625 C 55.84375 37.445313 55.269531 36.644531 54.476563 36.644531 C 53.675781 36.644531 53.621094 36.714844 52.867188 37.089844 C 52.269531 37.386719 52.082031 37.664063 51.882813 37.796875 L 51.882813 36.5 L 50.300781 36.5 L 50.300781 41.902344 "/>
<path style=" stroke:none;fill-rule:evenodd;fill:rgb(0%,50.19989%,77.598572%);fill-opacity:1;" d="M 40.652344 36.609375 L 40.652344 41.902344 L 42.234375 41.902344 L 42.234375 36.5 L 40.761719 36.5 C 40.675781 36.5 40.652344 36.527344 40.652344 36.609375 "/>
<path style=" stroke:none;fill-rule:evenodd;fill:rgb(0%,50.19989%,77.598572%);fill-opacity:1;" d="M 22.394531 14.691406 L 23.519531 12.375 L 27.4375 13.277344 L 26.324219 15.539063 C 26.324219 15.539063 22.382813 14.667969 22.394531 14.691406 "/>
<path style=" stroke:none;fill-rule:evenodd;fill:rgb(0%,50.19989%,77.598572%);fill-opacity:1;" d="M 27.203125 15.785156 L 28.328125 13.472656 L 32.25 14.371094 L 31.136719 16.636719 C 31.136719 16.636719 27.195313 15.765625 27.203125 15.785156 "/>
<path style=" stroke:none;fill-rule:evenodd;fill:rgb(0%,50.19989%,77.598572%);fill-opacity:1;" d="M 39.953125 18.722656 L 41.078125 16.410156 L 45 17.308594 L 43.886719 19.574219 C 43.886719 19.574219 39.945313 18.703125 39.953125 18.722656 "/>
<path style=" stroke:none;fill-rule:evenodd;fill:rgb(0%,50.19989%,77.598572%);fill-opacity:1;" d="M 44.765625 19.828125 L 45.894531 17.515625 L 49.8125 18.414063 L 48.699219 20.679688 C 48.699219 20.679688 44.757813 19.808594 44.765625 19.828125 "/>
</g>
</svg>
